<svg xmlns="http://www.w3.org/2000/svg" width="16" height="16" viewBox="0 0 16 16" fill="none">
<g clip-path="url(#clip0_15761_1280)">
<path d="M8.06531 11.7284L7.07978 13.4323L8.55213 15.9792C8.37106 15.9941 8.18701 16 8 16C4.85343 16 2.13432 14.1863 0.8282 11.5473H3.87087L5.16809 9.30909V6.37625H8.89944V8.00594H12.9751V11.7284H8.06531Z" fill="#FCF7F5"/>
<path d="M8.90538 2.50241V4.74954H5.16809V2.50241L6.26048 3.15844L7.03822 2.03043L7.81299 3.15844L8.90538 2.50241Z" fill="#FF7900"/>
<path d="M8 0C3.57996 0 0 3.57996 0 8C0 9.27347 0.296846 10.4787 0.8282 11.5473H3.87087L5.16809 9.30909V6.37625H8.89944V8.00594H12.9751V11.7284H8.06531L7.07978 13.4323L8.55213 15.9792C12.7139 15.6972 16 12.233 16 8C16 3.76698 12.42 0 8 0ZM7.03822 0.90538L7.58738 1.45751L7.03822 2.00668L6.48609 1.45751L7.03822 0.90538ZM8.90538 4.74954H5.16809V2.50241L6.26048 3.15844L7.03822 2.03043L7.81299 3.15844L8.90538 2.50241V4.74954Z" fill="#FF7900"/>
<path d="M7.58738 1.45751L7.03822 2.00668L6.48609 1.45751L7.03822 0.90538L7.58738 1.45751Z" fill="#FF7900"/>
<path d="M8.90538 2.50241V4.74954H5.16809V2.50241L6.26048 3.15844L7.03822 2.03043L7.81299 3.15844L8.90538 2.50241Z" fill="#FCF7F5"/>
<path d="M7.58738 1.45751L7.03822 2.00668L6.48609 1.45751L7.03822 0.90538L7.58738 1.45751Z" fill="#FCF7F5"/>
</g>
<defs>
<clipPath id="clip0_15761_1280">
<rect width="16" height="16" fill="white"/>
</clipPath>
</defs>
</svg>