<svg xmlns="http://www.w3.org/2000/svg" width="158" height="29" viewBox="0 0 158 29" fill="none">
<path d="M114.24 13.6881H106.48L105.233 15.8441L108.582 21.6339L104.511 23.9695L101.155 18.1695H78.0092L74.6532 23.9695L70.582 21.6339L73.9651 15.7831L71.2736 10.9831L75.382 8.68475L78.06 13.461H101.179L102.819 10.6271V6.92204H107.535V8.97967H114.24V13.6881Z" fill="#FF7900"/>
<path d="M105.182 1.39322L104.484 0.698305L105.182 0L105.877 0.698305L105.182 1.39322Z" fill="#FF7900"/>
<path d="M107.545 2.02036V4.86443H102.816V2.02036L104.199 2.85087L105.182 1.42375L106.162 2.85087L107.545 2.02036Z" fill="#FF7900"/>
<path d="M3.95932 16.3019C3.95932 15.1155 4.35254 14.1257 5.14915 13.3358C5.93898 12.5494 6.9322 12.1562 8.12543 12.1562C8.5661 12.1562 9 12.2206 9.4339 12.3528C9.86441 12.485 10.2102 12.6341 10.4746 12.8002C10.739 12.9663 10.9898 13.1562 11.2373 13.3663C11.4814 13.5799 11.6373 13.7291 11.7017 13.8138C11.7729 13.9019 11.8237 13.9697 11.8644 14.0206L14.2644 11.5291L14.0271 11.2341C13.878 11.0307 13.6305 10.7867 13.2915 10.5053C12.9492 10.2206 12.5492 9.93583 12.0915 9.65448C11.6339 9.36973 11.0542 9.12566 10.3492 8.92566C9.64407 8.72227 8.9017 8.62058 8.12204 8.62058C5.86102 8.62058 3.93898 9.37312 2.36271 10.885C0.78983 12.3968 0 14.2036 0 16.3053C0 18.407 0.786441 20.2172 2.36271 21.7257C3.93898 23.2409 5.85763 23.9935 8.12204 23.9935C8.90848 23.9935 9.66441 23.8884 10.3932 23.685C11.122 23.4782 11.7085 23.2443 12.1525 22.9901C12.5966 22.7324 13.0102 22.4375 13.3898 22.1053C13.7729 21.7697 14.017 21.5392 14.122 21.407C14.2271 21.2714 14.3051 21.1663 14.3627 21.085L12.078 18.5935L11.6407 19.0579C11.3492 19.3765 10.8746 19.6918 10.2203 20.0036C9.56271 20.3155 8.86441 20.4714 8.12543 20.4714C6.9322 20.4714 5.93898 20.0714 5.14915 19.285C4.35593 18.4918 3.95932 17.5019 3.95932 16.3121V16.3019ZM19 16.3019C19 15.1155 19.3898 14.1257 20.1695 13.3358C20.9492 12.5494 21.9153 12.1562 23.0644 12.1562C24.2136 12.1562 25.1797 12.5494 25.9559 13.3358C26.7288 14.1257 27.1186 15.1155 27.1186 16.3019C27.1186 17.4884 26.7288 18.4816 25.9559 19.2748C25.1797 20.0646 24.2136 20.4613 23.0644 20.4613C21.9153 20.4613 20.9492 20.0613 20.1695 19.2748C19.3898 18.4816 19 17.4918 19 16.3019ZM31.1729 16.3019C31.1729 14.2002 30.3864 12.3935 28.8102 10.8816C27.2373 9.37312 25.3186 8.61719 23.061 8.61719C20.8034 8.61719 18.8814 9.36973 17.3085 10.8816C15.7356 12.3935 14.9458 14.2002 14.9458 16.3019C14.9458 18.4036 15.7322 20.2138 17.3085 21.7223C18.8847 23.2375 20.8 23.9901 23.061 23.9901C25.322 23.9901 27.2373 23.2375 28.8102 21.7223C30.3864 20.2138 31.1729 18.407 31.1729 16.3019ZM33.0068 23.5765H36.9593V19.0036H39.0441L41.5424 23.5765H45.6983L42.6814 18.285L42.9559 18.1324C43.1187 18.0477 43.322 17.9019 43.5627 17.6782C43.8068 17.4613 44.0509 17.1935 44.2915 16.8782C44.539 16.563 44.7458 16.1528 44.922 15.6477C45.0915 15.146 45.1763 14.6036 45.1763 14.0206C45.1763 12.607 44.678 11.424 43.678 10.4646C42.678 9.50871 41.4102 9.03075 39.8746 9.03075H33.0034V23.5731L33.0068 23.5765ZM41.2305 14.0172C41.2305 14.4341 41.0848 14.7799 40.7932 15.0579C40.5017 15.3358 40.1254 15.4714 39.6644 15.4714H36.9627V12.5697H39.6644C40.1254 12.5697 40.5017 12.7087 40.7932 12.9833C41.0848 13.2579 41.2305 13.6036 41.2305 14.0172ZM54.6068 23.9935C55.3865 23.9935 56.139 23.8884 56.8712 23.685C57.6034 23.4782 58.2034 23.2443 58.6712 22.9901C59.139 22.7324 59.5763 22.4375 59.9831 22.1053C60.3898 21.7697 60.6576 21.5392 60.7864 21.407C60.9153 21.2714 61.0068 21.1663 61.0576 21.085V15.4748H54.8102V17.9697H57.0949V19.5324L56.8542 19.7562C56.6848 19.9223 56.3932 20.085 55.9797 20.2375C55.5627 20.3901 55.1085 20.468 54.6068 20.468C53.4136 20.468 52.4237 20.068 51.6305 19.2816C50.8373 18.4884 50.4407 17.4985 50.4407 16.3087C50.4407 15.1189 50.8373 14.1324 51.6305 13.3426C52.4203 12.5562 53.4136 12.163 54.6068 12.163C55.0475 12.163 55.4814 12.2274 55.9153 12.3596C56.3458 12.4918 56.6915 12.6409 56.9559 12.807C57.2204 12.9731 57.4712 13.163 57.7187 13.3731C57.9593 13.5867 58.1187 13.7358 58.1831 13.8206C58.2542 13.9087 58.3051 13.9765 58.3458 14.0274L60.7458 11.5358L60.5119 11.2409C60.3627 11.0375 60.1153 10.7935 59.7763 10.5121C59.4339 10.2274 59.0339 9.94261 58.5763 9.66126C58.1187 9.37651 57.539 9.13244 56.8339 8.93244C56.1288 8.72905 55.3865 8.62736 54.6068 8.62736C52.3458 8.62736 50.4237 9.3799 48.8509 10.8918C47.2746 12.4036 46.4881 14.2104 46.4881 16.3121C46.4881 18.4138 47.2746 20.224 48.8509 21.7324C50.4237 23.2477 52.3458 24.0002 54.6068 24.0002V23.9935ZM63.4983 23.5765H67.4542V9.03414H63.4983V23.5765Z" fill="#FCF7F5"/>
<path d="M125.065 23.5765C126.617 23.5765 127.888 23.1494 128.881 22.2986C129.871 21.4477 130.373 20.4545 130.373 19.3155C130.373 18.8274 130.278 18.3765 130.092 17.9664C129.905 17.5528 129.695 17.2274 129.468 16.9935C129.234 16.7562 128.97 16.5426 128.671 16.3596C128.373 16.1731 128.166 16.0545 128.048 16.0036C127.929 15.9528 127.837 15.9155 127.77 15.8884L127.959 15.7867C128.095 15.7155 128.254 15.607 128.431 15.4477C128.61 15.2884 128.79 15.102 128.973 14.8816C129.156 14.6681 129.315 14.3765 129.441 14.0172C129.57 13.6545 129.634 13.2748 129.634 12.8748C129.634 11.8409 129.176 10.9426 128.261 10.1765C127.346 9.41042 126.143 9.03076 124.644 9.03076H118.088V23.5731H125.058L125.065 23.5765ZM145.559 9.03415V12.5731H149.614V23.5799H153.566V12.5731H157.631V9.03415H145.559ZM136.061 20.2511V17.7664H141.678V14.6443H136.061V12.363H143.349V9.03754H132.109V23.5799H143.553V20.2545H136.065L136.061 20.2511ZM122.044 17.5528H124.746C125.207 17.5528 125.587 17.6918 125.875 17.9697C126.166 18.2477 126.312 18.5935 126.312 19.007C126.312 19.4206 126.166 19.7697 125.875 20.0477C125.583 20.3291 125.207 20.4681 124.746 20.4681H122.044V17.5528ZM124.231 12.1562C124.644 12.1562 124.973 12.2714 125.214 12.4952C125.458 12.7257 125.583 13.024 125.583 13.3969C125.583 13.7697 125.458 14.0714 125.214 14.3019C124.973 14.5257 124.641 14.6409 124.231 14.6409H122.044V12.1562H124.231Z" fill="#FCF7F5"/>
</svg>